<svg xmlns="http://www.w3.org/2000/svg" xmlns:xlink="http://www.w3.org/1999/xlink" width="293" zoomAndPan="magnify" viewBox="0 0 219.75 82.499998" height="110" preserveAspectRatio="xMidYMid meet" version="1.2"><defs><clipPath id="ceeaae259f"><path d="M 55.1875 8.890625 L 106.695312 8.890625 L 106.695312 66.542969 L 55.1875 66.542969 Z M 55.1875 8.890625 "/></clipPath><clipPath id="bbf3c43c65"><path d="M 57.8125 25.9375 C 56.066406 24.261719 55.195312 21.945312 55.203125 18.996094 C 55.203125 15.851562 56.226562 13.390625 58.128906 12.085938 C 59.742188 10.980469 61.488281 10.074219 63.242188 9.667969 C 68.136719 8.53125 73.023438 8.761719 77.808594 10.875 C 79.453125 11.601562 81.058594 12.539062 82.078125 14.808594 C 80.726562 17.085938 79.921875 13.5625 78.507812 14.335938 C 80.738281 24.125 82.96875 33.898438 85.191406 43.65625 L 85.5625 43.675781 C 85.742188 43.179688 85.972656 42.710938 86.109375 42.1875 C 88.535156 32.679688 90.949219 23.164062 93.355469 13.644531 C 93.515625 13.003906 93.496094 12.265625 93.5625 11.570312 C 93.046875 11.570312 92.515625 11.433594 92.023438 11.59375 C 91.234375 11.851562 90.582031 11.917969 90.304688 10.523438 C 92.550781 6.910156 104.363281 9.988281 106.675781 14.855469 C 106.132812 15.703125 105.589844 15.957031 104.9375 15.042969 C 104.746094 14.777344 104.488281 14.617188 104.265625 14.402344 C 103.433594 13.589844 102.988281 13.984375 102.660156 15.316406 C 101.335938 20.699219 99.964844 26.054688 98.613281 31.421875 C 95.804688 42.582031 93.003906 53.746094 90.210938 64.910156 C 89.933594 66.023438 89.542969 66.492188 88.707031 66.488281 C 83.609375 66.453125 78.511719 66.507812 73.410156 66.484375 C 71.316406 66.472656 69.644531 64.914062 69.148438 62.519531 C 69.039062 61.996094 69.113281 61 69.34375 60.792969 C 69.871094 60.320312 70.273438 60.746094 70.566406 61.644531 C 71.21875 63.648438 73.109375 64.808594 74.574219 64.136719 C 74.832031 64.011719 75.113281 63.296875 75.113281 62.847656 C 75.121094 62.207031 74.886719 61.558594 74.746094 60.917969 C 71.214844 45.328125 67.679688 29.738281 64.140625 14.148438 C 63.621094 11.847656 63.535156 11.726562 61.925781 12.367188 C 60.863281 12.796875 59.78125 13.28125 58.808594 14.027344 C 56.398438 15.882812 55.921875 20.253906 57.820312 23.132812 C 58.472656 24.121094 58.5625 24.835938 57.8125 25.9375 Z M 89.492188 60.675781 C 89.683594 60.097656 89.886719 59.589844 90.023438 59.046875 C 91.886719 51.753906 93.738281 44.457031 95.589844 37.15625 C 97.488281 29.644531 99.386719 22.132812 101.273438 14.613281 C 101.675781 13.015625 101.464844 12.566406 100.402344 12.3125 C 99.640625 12.128906 99.277344 12.644531 99.035156 13.621094 C 98.214844 16.9375 97.363281 20.238281 96.527344 23.550781 C 93.84375 34.226562 91.164062 44.902344 88.484375 55.574219 C 88.09375 57.136719 88.507812 59.375 89.492188 60.675781 Z M 87.304688 52.519531 C 87.664062 51.679688 87.910156 51.277344 88.027344 50.804688 C 91.175781 38.417969 94.316406 26.023438 97.441406 13.621094 C 97.871094 11.921875 97.472656 11.125 96.25 11.414062 C 95.84375 11.511719 95.339844 12.238281 95.1875 12.84375 C 92.289062 24.238281 89.445312 35.65625 86.566406 47.0625 C 86.074219 49.007812 86.773438 50.445312 87.304688 52.519531 Z M 87.304688 52.519531 "/></clipPath><filter x="0%" y="0%" width="100%" filterUnits="objectBoundingBox" id="4b2c8ad9aa" height="100%"><feColorMatrix values="0 0 0 0 1 0 0 0 0 1 0 0 0 0 1 0 0 0 1 0" type="matrix" in="SourceGraphic"/></filter><clipPath id="07a1a05fb6"><path d="M 0.1875 0.890625 L 51.695312 0.890625 L 51.695312 58.542969 L 0.1875 58.542969 Z M 0.1875 0.890625 "/></clipPath><clipPath id="845dd4374e"><path d="M 2.8125 17.9375 C 1.066406 16.261719 0.195312 13.945312 0.203125 10.996094 C 0.203125 7.851562 1.226562 5.390625 3.128906 4.085938 C 4.742188 2.980469 6.488281 2.074219 8.242188 1.667969 C 13.136719 0.53125 18.023438 0.761719 22.808594 2.875 C 24.453125 3.601562 26.058594 4.539062 27.078125 6.808594 C 25.726562 9.085938 24.921875 5.5625 23.507812 6.335938 C 25.738281 16.125 27.96875 25.898438 30.191406 35.65625 L 30.5625 35.675781 C 30.742188 35.179688 30.972656 34.710938 31.109375 34.1875 C 33.535156 24.679688 35.949219 15.164062 38.355469 5.644531 C 38.515625 5.003906 38.496094 4.265625 38.5625 3.570312 C 38.046875 3.570312 37.515625 3.433594 37.023438 3.59375 C 36.234375 3.851562 35.582031 3.917969 35.304688 2.523438 C 37.550781 -1.089844 49.363281 1.988281 51.675781 6.855469 C 51.132812 7.703125 50.589844 7.957031 49.9375 7.042969 C 49.746094 6.777344 49.488281 6.617188 49.265625 6.402344 C 48.433594 5.589844 47.988281 5.984375 47.660156 7.316406 C 46.335938 12.699219 44.964844 18.054688 43.613281 23.421875 C 40.804688 34.582031 38.003906 45.746094 35.210938 56.910156 C 34.933594 58.023438 34.542969 58.492188 33.707031 58.488281 C 28.609375 58.453125 23.511719 58.507812 18.410156 58.484375 C 16.316406 58.472656 14.644531 56.914062 14.148438 54.519531 C 14.039062 53.996094 14.113281 53 14.34375 52.792969 C 14.871094 52.320312 15.273438 52.746094 15.566406 53.644531 C 16.21875 55.648438 18.109375 56.808594 19.574219 56.136719 C 19.832031 56.011719 20.113281 55.296875 20.113281 54.847656 C 20.121094 54.207031 19.886719 53.558594 19.746094 52.917969 C 16.214844 37.328125 12.679688 21.738281 9.140625 6.148438 C 8.621094 3.847656 8.535156 3.726562 6.925781 4.367188 C 5.863281 4.796875 4.78125 5.28125 3.808594 6.027344 C 1.398438 7.882812 0.921875 12.253906 2.820312 15.132812 C 3.472656 16.121094 3.5625 16.835938 2.8125 17.9375 Z M 34.492188 52.675781 C 34.683594 52.097656 34.886719 51.589844 35.023438 51.046875 C 36.886719 43.753906 38.738281 36.457031 40.589844 29.15625 C 42.488281 21.644531 44.386719 14.132812 46.273438 6.613281 C 46.675781 5.015625 46.464844 4.566406 45.402344 4.3125 C 44.640625 4.128906 44.277344 4.644531 44.035156 5.621094 C 43.214844 8.9375 42.363281 12.238281 41.527344 15.550781 C 38.84375 26.226562 36.164062 36.902344 33.484375 47.574219 C 33.09375 49.136719 33.507812 51.375 34.492188 52.675781 Z M 32.304688 44.519531 C 32.664062 43.679688 32.910156 43.277344 33.027344 42.804688 C 36.175781 30.417969 39.316406 18.023438 42.441406 5.621094 C 42.871094 3.921875 42.472656 3.125 41.25 3.414062 C 40.84375 3.511719 40.339844 4.238281 40.1875 4.84375 C 37.289062 16.238281 34.445312 27.65625 31.566406 39.0625 C 31.074219 41.007812 31.773438 42.445312 32.304688 44.519531 Z M 32.304688 44.519531 "/></clipPath><clipPath id="951e76ba4e"><rect x="0" width="52" y="0" height="59"/></clipPath><clipPath id="f6ff8b883a"><path d="M 111.199219 50.53125 L 118.261719 50.53125 L 118.261719 56.4375 L 111.199219 56.4375 Z M 111.199219 50.53125 "/></clipPath><clipPath id="8aca636285"><path d="M 118.160156 51.523438 C 118.257812 51.417969 118.273438 51.511719 118.203125 51.808594 C 118.132812 52.105469 117.773438 52.585938 117.125 53.246094 C 116.476562 53.910156 115.878906 54.292969 115.339844 54.398438 C 115.230469 54.414062 115.125 54.449219 115.03125 54.503906 C 114.917969 54.578125 114.828125 54.667969 114.753906 54.78125 C 114.667969 54.898438 114.574219 55.011719 114.476562 55.117188 L 114.453125 55.140625 C 114.0625 55.574219 113.601562 55.925781 113.078125 56.191406 C 112.597656 56.421875 112.175781 56.492188 111.820312 56.394531 C 111.464844 56.300781 111.269531 55.996094 111.234375 55.488281 C 111.230469 55.023438 111.34375 54.53125 111.585938 54.011719 C 111.796875 53.542969 112.050781 53.097656 112.347656 52.675781 C 112.722656 52.105469 113.136719 51.664062 113.59375 51.355469 C 114.039062 51.050781 114.519531 50.820312 115.039062 50.667969 C 115.792969 50.445312 116.164062 50.707031 116.152344 51.453125 C 116.148438 51.925781 116.058594 52.378906 115.886719 52.820312 C 115.84375 52.929688 115.796875 53.042969 115.738281 53.164062 L 115.625 53.40625 C 115.542969 53.664062 115.617188 53.753906 115.847656 53.675781 C 116.503906 53.402344 117.273438 52.6875 118.160156 51.523438 Z M 112.980469 55.578125 C 113.429688 55.277344 113.78125 54.886719 114.035156 54.40625 C 113.507812 54.128906 113.242188 53.609375 113.234375 52.84375 C 112.929688 53.285156 112.691406 53.761719 112.523438 54.273438 C 112.351562 54.792969 112.292969 55.203125 112.34375 55.503906 C 112.394531 55.800781 112.605469 55.828125 112.980469 55.578125 Z M 114.558594 53.429688 C 114.707031 53.234375 114.820312 53.019531 114.894531 52.785156 C 114.972656 52.558594 115.023438 52.324219 115.046875 52.085938 C 115.070312 51.914062 115.058594 51.742188 115.019531 51.574219 C 114.980469 51.460938 114.914062 51.4375 114.816406 51.511719 C 114.628906 51.695312 114.496094 51.917969 114.417969 52.171875 C 114.335938 52.417969 114.304688 52.667969 114.324219 52.925781 C 114.347656 53.164062 114.425781 53.332031 114.558594 53.429688 Z M 114.558594 53.429688 "/></clipPath><clipPath id="cdfdd2f046"><path d="M 0.199219 0.53125 L 7.261719 0.53125 L 7.261719 6.4375 L 0.199219 6.4375 Z M 0.199219 0.53125 "/></clipPath><clipPath id="81b335c362"><path d="M 7.160156 1.523438 C 7.257812 1.417969 7.273438 1.511719 7.203125 1.808594 C 7.132812 2.105469 6.773438 2.585938 6.125 3.246094 C 5.476562 3.910156 4.878906 4.292969 4.339844 4.398438 C 4.230469 4.414062 4.125 4.449219 4.03125 4.503906 C 3.917969 4.578125 3.828125 4.667969 3.753906 4.78125 C 3.667969 4.898438 3.574219 5.011719 3.476562 5.117188 L 3.453125 5.140625 C 3.0625 5.574219 2.601562 5.925781 2.078125 6.191406 C 1.597656 6.421875 1.175781 6.492188 0.820312 6.394531 C 0.464844 6.300781 0.269531 5.996094 0.234375 5.488281 C 0.230469 5.023438 0.34375 4.53125 0.585938 4.011719 C 0.796875 3.542969 1.050781 3.097656 1.347656 2.675781 C 1.722656 2.105469 2.136719 1.664062 2.59375 1.355469 C 3.039062 1.050781 3.519531 0.820312 4.039062 0.667969 C 4.792969 0.445312 5.164062 0.707031 5.152344 1.453125 C 5.148438 1.925781 5.058594 2.378906 4.886719 2.820312 C 4.84375 2.929688 4.796875 3.042969 4.738281 3.164062 L 4.625 3.40625 C 4.542969 3.664062 4.617188 3.753906 4.847656 3.675781 C 5.503906 3.402344 6.273438 2.6875 7.160156 1.523438 Z M 1.980469 5.578125 C 2.429688 5.277344 2.78125 4.886719 3.035156 4.40625 C 2.507812 4.128906 2.242188 3.609375 2.234375 2.84375 C 1.929688 3.285156 1.691406 3.761719 1.523438 4.273438 C 1.351562 4.792969 1.292969 5.203125 1.34375 5.503906 C 1.394531 5.800781 1.605469 5.828125 1.980469 5.578125 Z M 3.558594 3.429688 C 3.707031 3.234375 3.820312 3.019531 3.894531 2.785156 C 3.972656 2.558594 4.023438 2.324219 4.046875 2.085938 C 4.070312 1.914062 4.058594 1.742188 4.019531 1.574219 C 3.980469 1.460938 3.914062 1.4375 3.816406 1.511719 C 3.628906 1.695312 3.496094 1.917969 3.417969 2.171875 C 3.335938 2.417969 3.304688 2.667969 3.324219 2.925781 C 3.347656 3.164062 3.425781 3.332031 3.558594 3.429688 Z M 3.558594 3.429688 "/></clipPath><clipPath id="17651babaa"><rect x="0" width="8" y="0" height="7"/></clipPath><clipPath id="f67c127e4d"><path d="M 117.652344 44.261719 L 127.152344 44.261719 L 127.152344 57.289062 L 117.652344 57.289062 Z M 117.652344 44.261719 "/></clipPath><clipPath id="7326ab764c"><path d="M 124.355469 52.515625 C 124.734375 52.136719 124.882812 52.027344 124.800781 52.191406 C 124.71875 52.355469 124.484375 52.671875 124.09375 53.144531 C 123.703125 53.621094 123.234375 54.144531 122.6875 54.71875 C 122.164062 55.273438 121.605469 55.789062 121.015625 56.273438 C 120.449219 56.738281 119.949219 57.035156 119.519531 57.167969 C 118.996094 57.296875 118.617188 57.234375 118.386719 56.980469 C 118.152344 56.726562 118.039062 56.34375 118.042969 55.828125 C 118.050781 55.316406 118.144531 54.734375 118.332031 54.09375 C 118.542969 53.375 118.753906 52.65625 118.960938 51.9375 C 119.0625 51.574219 119.160156 51.222656 119.257812 50.878906 C 119.4375 50.296875 119.601562 49.71875 119.761719 49.144531 C 119.816406 48.960938 119.832031 48.816406 119.800781 48.710938 C 119.765625 48.605469 119.667969 48.566406 119.503906 48.597656 C 119.316406 48.632812 119.082031 48.683594 118.792969 48.753906 L 118.152344 48.914062 C 117.910156 48.945312 117.761719 48.917969 117.707031 48.824219 C 117.652344 48.734375 117.746094 48.601562 117.992188 48.433594 C 118.171875 48.324219 118.367188 48.242188 118.570312 48.191406 C 118.785156 48.132812 118.992188 48.082031 119.195312 48.042969 C 119.324219 48.023438 119.433594 48 119.53125 47.976562 C 119.851562 47.898438 120.058594 47.796875 120.160156 47.671875 C 120.257812 47.546875 120.355469 47.324219 120.453125 47 C 120.558594 46.660156 120.660156 46.320312 120.757812 45.972656 C 120.816406 45.792969 120.878906 45.609375 120.941406 45.425781 C 121.015625 45.144531 121.140625 44.886719 121.320312 44.65625 C 121.511719 44.421875 121.710938 44.296875 121.917969 44.292969 C 122.089844 44.296875 122.160156 44.398438 122.128906 44.597656 C 122.0625 44.929688 121.984375 45.265625 121.898438 45.605469 C 121.855469 45.796875 121.808594 45.988281 121.746094 46.179688 C 121.683594 46.375 121.644531 46.59375 121.601562 46.808594 C 121.515625 47.113281 121.5 47.296875 121.554688 47.359375 C 121.609375 47.417969 121.785156 47.410156 122.082031 47.335938 L 123.527344 46.980469 C 123.742188 46.925781 124.390625 46.753906 125.46875 46.457031 C 126.546875 46.160156 127.097656 46.109375 127.125 46.308594 C 127.15625 46.503906 126.445312 46.796875 124.996094 47.1875 C 124.113281 47.453125 123.4375 47.644531 122.960938 47.761719 C 122.644531 47.832031 122.359375 47.894531 122.109375 47.957031 C 121.679688 48.0625 121.394531 48.207031 121.253906 48.394531 C 121.113281 48.578125 120.984375 48.910156 120.867188 49.386719 C 120.753906 49.800781 120.605469 50.304688 120.429688 50.894531 C 120.050781 52.113281 119.699219 53.34375 119.378906 54.585938 C 119.183594 55.441406 119.179688 55.960938 119.375 56.152344 C 119.570312 56.34375 119.894531 56.304688 120.347656 56.042969 C 120.808594 55.78125 121.332031 55.386719 121.921875 54.859375 C 122.511719 54.332031 123.101562 53.773438 123.699219 53.1875 C 123.847656 53.011719 124.007812 52.84375 124.175781 52.6875 C 124.246094 52.621094 124.304688 52.566406 124.355469 52.515625 Z M 124.355469 52.515625 "/></clipPath><clipPath id="c7dd3efdfa"><path d="M 0.652344 0.261719 L 10.152344 0.261719 L 10.152344 13.289062 L 0.652344 13.289062 Z M 0.652344 0.261719 "/></clipPath><clipPath id="231f636f41"><path d="M 7.355469 8.515625 C 7.734375 8.136719 7.882812 8.027344 7.800781 8.191406 C 7.71875 8.355469 7.484375 8.671875 7.09375 9.144531 C 6.703125 9.621094 6.234375 10.144531 5.6875 10.71875 C 5.164062 11.273438 4.605469 11.789062 4.015625 12.273438 C 3.449219 12.738281 2.949219 13.035156 2.519531 13.167969 C 1.996094 13.296875 1.617188 13.234375 1.386719 12.980469 C 1.152344 12.726562 1.039062 12.34375 1.042969 11.828125 C 1.050781 11.316406 1.144531 10.734375 1.332031 10.09375 C 1.542969 9.375 1.753906 8.65625 1.960938 7.9375 C 2.0625 7.574219 2.160156 7.222656 2.257812 6.878906 C 2.4375 6.296875 2.601562 5.71875 2.761719 5.144531 C 2.816406 4.960938 2.832031 4.816406 2.800781 4.710938 C 2.765625 4.605469 2.667969 4.566406 2.503906 4.597656 C 2.316406 4.632812 2.082031 4.683594 1.792969 4.753906 L 1.152344 4.914062 C 0.910156 4.945312 0.761719 4.917969 0.707031 4.824219 C 0.652344 4.734375 0.746094 4.601562 0.992188 4.433594 C 1.171875 4.324219 1.367188 4.242188 1.570312 4.191406 C 1.785156 4.132812 1.992188 4.082031 2.195312 4.042969 C 2.324219 4.023438 2.433594 4 2.53125 3.976562 C 2.851562 3.898438 3.058594 3.796875 3.160156 3.671875 C 3.257812 3.546875 3.355469 3.324219 3.453125 3 C 3.558594 2.660156 3.660156 2.320312 3.757812 1.972656 C 3.816406 1.792969 3.878906 1.609375 3.941406 1.425781 C 4.015625 1.144531 4.140625 0.886719 4.320312 0.65625 C 4.511719 0.421875 4.710938 0.296875 4.917969 0.292969 C 5.089844 0.296875 5.160156 0.398438 5.128906 0.597656 C 5.0625 0.929688 4.984375 1.265625 4.898438 1.605469 C 4.855469 1.796875 4.808594 1.988281 4.746094 2.179688 C 4.683594 2.375 4.644531 2.59375 4.601562 2.808594 C 4.515625 3.113281 4.5 3.296875 4.554688 3.359375 C 4.609375 3.417969 4.785156 3.410156 5.082031 3.335938 L 6.527344 2.980469 C 6.742188 2.925781 7.390625 2.753906 8.46875 2.457031 C 9.546875 2.160156 10.097656 2.109375 10.125 2.308594 C 10.15625 2.503906 9.445312 2.796875 7.996094 3.1875 C 7.113281 3.453125 6.4375 3.644531 5.960938 3.761719 C 5.644531 3.832031 5.359375 3.894531 5.109375 3.957031 C 4.679688 4.0625 4.394531 4.207031 4.253906 4.394531 C 4.113281 4.578125 3.984375 4.910156 3.867188 5.386719 C 3.753906 5.800781 3.605469 6.304688 3.429688 6.894531 C 3.050781 8.113281 2.699219 9.34375 2.378906 10.585938 C 2.183594 11.441406 2.179688 11.960938 2.375 12.152344 C 2.570312 12.34375 2.894531 12.304688 3.347656 12.042969 C 3.808594 11.78125 4.332031 11.386719 4.921875 10.859375 C 5.511719 10.332031 6.101562 9.773438 6.699219 9.1875 C 6.847656 9.011719 7.007812 8.84375 7.175781 8.6875 C 7.246094 8.621094 7.304688 8.566406 7.355469 8.515625 Z M 7.355469 8.515625 "/></clipPath><clipPath id="d4ae8b7797"><rect x="0" width="11" y="0" height="14"/></clipPath><clipPath id="8823ab9f66"><path d="M 124.109375 50.167969 L 132.996094 50.167969 L 132.996094 56.621094 L 124.109375 56.621094 Z M 124.109375 50.167969 "/></clipPath><clipPath id="6d99dc33fd"><path d="M 132.355469 51.949219 C 132.484375 51.855469 132.613281 51.765625 132.753906 51.6875 C 132.875 51.621094 132.949219 51.605469 132.972656 51.644531 C 132.996094 51.679688 132.921875 51.796875 132.746094 51.992188 C 132.1875 52.613281 131.585938 53.191406 130.941406 53.71875 C 130.300781 54.25 129.628906 54.742188 128.933594 55.195312 C 128.414062 55.535156 127.875 55.835938 127.316406 56.097656 C 126.765625 56.359375 126.246094 56.515625 125.761719 56.5625 C 125.277344 56.613281 124.878906 56.488281 124.5625 56.183594 C 124.089844 55.714844 124.027344 55.015625 124.371094 54.085938 C 124.65625 53.328125 125.074219 52.652344 125.621094 52.0625 C 126.164062 51.46875 126.792969 50.992188 127.515625 50.640625 C 128.039062 50.390625 128.589844 50.242188 129.167969 50.191406 C 129.382812 50.164062 129.582031 50.199219 129.777344 50.292969 C 129.925781 50.402344 129.980469 50.558594 129.945312 50.761719 C 129.910156 50.96875 129.785156 51.183594 129.574219 51.417969 C 129.136719 51.832031 128.683594 52.128906 128.214844 52.304688 C 127.699219 52.515625 127.175781 52.699219 126.640625 52.855469 C 126.390625 52.917969 126.203125 53.015625 126.070312 53.152344 C 125.941406 53.285156 125.835938 53.488281 125.753906 53.761719 C 125.484375 54.503906 125.546875 55.042969 125.945312 55.371094 C 126.191406 55.566406 126.550781 55.585938 127.019531 55.433594 C 127.484375 55.28125 128.003906 55.03125 128.574219 54.679688 C 129.144531 54.328125 129.714844 53.945312 130.285156 53.523438 C 130.855469 53.101562 131.371094 52.710938 131.835938 52.347656 C 132.03125 52.191406 132.207031 52.058594 132.355469 51.949219 Z M 127.121094 51.792969 C 127.117188 51.808594 127.105469 51.816406 127.09375 51.816406 C 127.066406 51.847656 127.03125 51.878906 126.984375 51.921875 C 126.9375 51.964844 126.898438 52.003906 126.863281 52.042969 C 126.835938 52.066406 126.816406 52.089844 126.800781 52.117188 C 126.800781 52.15625 126.894531 52.144531 127.085938 52.078125 C 127.273438 52.011719 127.484375 51.925781 127.71875 51.824219 C 127.933594 51.730469 128.136719 51.617188 128.328125 51.484375 C 128.5 51.363281 128.570312 51.253906 128.539062 51.152344 C 128.519531 51.125 128.492188 51.101562 128.460938 51.085938 C 128.421875 51.070312 128.382812 51.0625 128.34375 51.0625 C 128.117188 51.121094 127.910156 51.214844 127.714844 51.34375 C 127.507812 51.480469 127.308594 51.632812 127.117188 51.792969 Z M 127.121094 51.792969 "/></clipPath><clipPath id="e722da9c9a"><path d="M 0.109375 0.167969 L 8.996094 0.167969 L 8.996094 6.621094 L 0.109375 6.621094 Z M 0.109375 0.167969 "/></clipPath><clipPath id="9aec809d48"><path d="M 8.355469 1.949219 C 8.484375 1.855469 8.613281 1.765625 8.753906 1.6875 C 8.875 1.621094 8.949219 1.605469 8.972656 1.644531 C 8.996094 1.679688 8.921875 1.796875 8.746094 1.992188 C 8.1875 2.613281 7.585938 3.191406 6.941406 3.71875 C 6.300781 4.25 5.628906 4.742188 4.933594 5.195312 C 4.414062 5.535156 3.875 5.835938 3.316406 6.097656 C 2.765625 6.359375 2.246094 6.515625 1.761719 6.5625 C 1.277344 6.613281 0.878906 6.488281 0.5625 6.183594 C 0.0898438 5.714844 0.0273438 5.015625 0.371094 4.085938 C 0.65625 3.328125 1.074219 2.652344 1.621094 2.0625 C 2.164062 1.46875 2.792969 0.992188 3.515625 0.640625 C 4.039062 0.390625 4.589844 0.242188 5.167969 0.191406 C 5.382812 0.164062 5.582031 0.199219 5.777344 0.292969 C 5.925781 0.402344 5.980469 0.558594 5.945312 0.761719 C 5.910156 0.96875 5.785156 1.183594 5.574219 1.417969 C 5.136719 1.832031 4.683594 2.128906 4.214844 2.304688 C 3.699219 2.515625 3.175781 2.699219 2.640625 2.855469 C 2.390625 2.917969 2.203125 3.015625 2.070312 3.152344 C 1.941406 3.285156 1.835938 3.488281 1.753906 3.761719 C 1.484375 4.503906 1.546875 5.042969 1.945312 5.371094 C 2.191406 5.566406 2.550781 5.585938 3.019531 5.433594 C 3.484375 5.28125 4.003906 5.03125 4.574219 4.679688 C 5.144531 4.328125 5.714844 3.945312 6.285156 3.523438 C 6.855469 3.101562 7.371094 2.710938 7.835938 2.347656 C 8.03125 2.191406 8.207031 2.058594 8.355469 1.949219 Z M 3.121094 1.792969 C 3.117188 1.808594 3.105469 1.816406 3.09375 1.816406 C 3.066406 1.847656 3.03125 1.878906 2.984375 1.921875 C 2.9375 1.964844 2.898438 2.003906 2.863281 2.042969 C 2.835938 2.066406 2.816406 2.089844 2.800781 2.117188 C 2.800781 2.15625 2.894531 2.144531 3.085938 2.078125 C 3.273438 2.011719 3.484375 1.925781 3.71875 1.824219 C 3.933594 1.730469 4.136719 1.617188 4.328125 1.484375 C 4.5 1.363281 4.570312 1.253906 4.539062 1.152344 C 4.519531 1.125 4.492188 1.101562 4.460938 1.085938 C 4.421875 1.070312 4.382812 1.0625 4.34375 1.0625 C 4.117188 1.121094 3.910156 1.214844 3.714844 1.34375 C 3.507812 1.480469 3.308594 1.632812 3.117188 1.792969 Z M 3.121094 1.792969 "/></clipPath><clipPath id="5d5b7f7f1b"><rect x="0" width="9" y="0" height="7"/></clipPath><clipPath id="7428c519e3"><path d="M 133.238281 34.886719 L 141.761719 34.886719 L 141.761719 57.59375 L 133.238281 57.59375 Z M 133.238281 34.886719 "/></clipPath><clipPath id="86f0cc4bae"><path d="M 138.917969 52.917969 C 139.070312 52.65625 139.203125 52.515625 139.308594 52.488281 C 139.417969 52.460938 139.421875 52.570312 139.320312 52.816406 C 138.992188 53.453125 138.632812 54.070312 138.246094 54.675781 C 137.84375 55.292969 137.378906 55.863281 136.851562 56.378906 C 136.472656 56.785156 136.027344 57.105469 135.523438 57.335938 C 134.886719 57.578125 134.40625 57.625 134.070312 57.472656 C 133.738281 57.320312 133.515625 57.042969 133.402344 56.632812 C 133.285156 56.171875 133.242188 55.707031 133.277344 55.230469 C 133.304688 54.707031 133.371094 54.1875 133.472656 53.675781 C 133.640625 52.710938 133.914062 51.433594 134.285156 49.839844 C 134.65625 48.246094 135.109375 46.546875 135.640625 44.734375 C 136.148438 43.003906 136.738281 41.304688 137.417969 39.636719 C 138.066406 38.042969 138.75 36.765625 139.464844 35.800781 C 139.859375 35.316406 140.246094 35.027344 140.628906 34.925781 C 141.011719 34.828125 141.300781 34.929688 141.496094 35.242188 C 141.625 35.5 141.695312 35.777344 141.710938 36.066406 C 141.726562 36.386719 141.707031 36.707031 141.652344 37.023438 C 141.460938 38.171875 141.128906 39.417969 140.65625 40.757812 C 140.183594 42.097656 139.609375 43.546875 138.933594 45.101562 C 138.324219 46.53125 137.636719 47.921875 136.875 49.277344 C 136.179688 50.507812 135.609375 51.488281 135.171875 52.214844 C 134.960938 52.515625 134.804688 52.933594 134.703125 53.460938 C 134.597656 54.042969 134.542969 54.628906 134.539062 55.21875 C 134.535156 55.816406 134.628906 56.265625 134.816406 56.566406 C 135.007812 56.804688 135.289062 56.828125 135.65625 56.628906 C 136.023438 56.425781 136.417969 56.101562 136.847656 55.652344 C 137.273438 55.199219 137.671875 54.722656 138.039062 54.222656 C 138.40625 53.722656 138.699219 53.289062 138.917969 52.917969 Z M 136.890625 45.09375 C 136.757812 45.484375 136.574219 46.070312 136.347656 46.851562 C 136.117188 47.632812 135.886719 48.425781 135.65625 49.230469 C 135.402344 50.128906 135.195312 50.832031 135.039062 51.335938 C 135.46875 50.632812 136.015625 49.628906 136.683594 48.328125 C 137.351562 47.023438 138.039062 45.511719 138.753906 43.789062 C 139.496094 41.988281 140.148438 40.152344 140.703125 38.285156 C 140.945312 37.175781 141.015625 36.445312 140.914062 36.09375 C 140.8125 35.746094 140.597656 35.765625 140.277344 36.15625 C 139.953125 36.542969 139.585938 37.285156 139.175781 38.378906 C 138.503906 40.1875 137.882812 41.988281 137.316406 43.777344 C 137.164062 44.21875 137.023438 44.65625 136.890625 45.09375 Z M 136.890625 45.09375 "/></clipPath><clipPath id="94d9ca2d1c"><path d="M 0.238281 0.886719 L 8.761719 0.886719 L 8.761719 23.59375 L 0.238281 23.59375 Z M 0.238281 0.886719 "/></clipPath><clipPath id="02717729a4"><path d="M 5.917969 18.917969 C 6.070312 18.65625 6.203125 18.515625 6.308594 18.488281 C 6.417969 18.460938 6.421875 18.570312 6.320312 18.816406 C 5.992188 19.453125 5.632812 20.070312 5.246094 20.675781 C 4.84375 21.292969 4.378906 21.863281 3.851562 22.378906 C 3.472656 22.785156 3.027344 23.105469 2.523438 23.335938 C 1.886719 23.578125 1.40625 23.625 1.070312 23.472656 C 0.738281 23.320312 0.515625 23.042969 0.402344 22.632812 C 0.285156 22.171875 0.242188 21.707031 0.277344 21.230469 C 0.304688 20.707031 0.371094 20.1875 0.472656 19.675781 C 0.640625 18.710938 0.914062 17.433594 1.285156 15.839844 C 1.65625 14.246094 2.109375 12.546875 2.640625 10.734375 C 3.148438 9.003906 3.738281 7.304688 4.417969 5.636719 C 5.066406 4.042969 5.75 2.765625 6.464844 1.800781 C 6.859375 1.316406 7.246094 1.027344 7.628906 0.925781 C 8.011719 0.828125 8.300781 0.929688 8.496094 1.242188 C 8.625 1.5 8.695312 1.777344 8.710938 2.066406 C 8.726562 2.386719 8.707031 2.707031 8.652344 3.023438 C 8.460938 4.171875 8.128906 5.417969 7.65625 6.757812 C 7.183594 8.097656 6.609375 9.546875 5.933594 11.101562 C 5.324219 12.53125 4.636719 13.921875 3.875 15.277344 C 3.179688 16.507812 2.609375 17.488281 2.171875 18.214844 C 1.960938 18.515625 1.804688 18.933594 1.703125 19.460938 C 1.597656 20.042969 1.542969 20.628906 1.539062 21.21875 C 1.535156 21.816406 1.628906 22.265625 1.816406 22.566406 C 2.007812 22.804688 2.289062 22.828125 2.65625 22.628906 C 3.023438 22.425781 3.417969 22.101562 3.847656 21.652344 C 4.273438 21.199219 4.671875 20.722656 5.039062 20.222656 C 5.40625 19.722656 5.699219 19.289062 5.917969 18.917969 Z M 3.890625 11.09375 C 3.757812 11.484375 3.574219 12.070312 3.347656 12.851562 C 3.117188 13.632812 2.886719 14.425781 2.65625 15.230469 C 2.402344 16.128906 2.195312 16.832031 2.039062 17.335938 C 2.46875 16.632812 3.015625 15.628906 3.683594 14.328125 C 4.351562 13.023438 5.039062 11.511719 5.753906 9.789062 C 6.496094 7.988281 7.148438 6.152344 7.703125 4.285156 C 7.945312 3.175781 8.015625 2.445312 7.914062 2.09375 C 7.8125 1.746094 7.597656 1.765625 7.277344 2.15625 C 6.953125 2.542969 6.585938 3.285156 6.175781 4.378906 C 5.503906 6.1875 4.882812 7.988281 4.316406 9.777344 C 4.164062 10.21875 4.023438 10.65625 3.890625 11.09375 Z M 3.890625 11.09375 "/></clipPath><clipPath id="e4c6e59673"><rect x="0" width="9" y="0" height="24"/></clipPath></defs><g id="8aef195e2d"><path style=" stroke:none;fill-rule:nonzero;fill:#ffffff;fill-opacity:1;" d="M 119.65625 39.203125 C 119.609375 39.144531 119.523438 39.125 119.402344 39.144531 C 119.148438 39.183594 118.898438 39.242188 118.652344 39.3125 C 118.023438 39.476562 117.402344 39.644531 116.789062 39.824219 L 113.664062 40.65625 L 113.402344 40.722656 C 113.246094 40.777344 113.082031 40.816406 112.917969 40.828125 C 112.820312 40.828125 112.777344 40.765625 112.789062 40.628906 C 112.824219 40.394531 112.875 40.160156 112.9375 39.929688 C 112.960938 39.839844 112.988281 39.738281 113.011719 39.632812 C 113.023438 39.597656 113.035156 39.5625 113.042969 39.527344 C 113.238281 38.765625 113.433594 38 113.628906 37.226562 C 114.8125 32.613281 115.992188 28.003906 117.171875 23.390625 C 117.238281 23.125 117.292969 22.859375 117.339844 22.59375 C 117.359375 22.460938 117.316406 22.371094 117.210938 22.332031 C 117.054688 22.28125 116.867188 22.320312 116.640625 22.449219 C 116.402344 22.589844 116.246094 22.792969 116.179688 23.058594 C 116.140625 23.195312 116.101562 23.332031 116.050781 23.472656 C 116.023438 23.582031 116 23.679688 115.972656 23.769531 C 115.402344 25.988281 114.832031 28.203125 114.261719 30.410156 C 114.128906 30.929688 114 31.441406 113.867188 31.953125 L 113.851562 31.957031 C 113.679688 32.628906 113.503906 33.304688 113.328125 33.984375 C 112.804688 36.023438 112.277344 38.074219 111.746094 40.125 C 111.675781 40.398438 111.601562 40.667969 111.519531 40.9375 C 111.46875 41.140625 111.347656 41.28125 111.152344 41.359375 C 111.074219 41.402344 110.996094 41.433594 110.910156 41.457031 L 110.757812 41.492188 C 110.273438 41.667969 109.792969 41.835938 109.324219 41.996094 C 108.109375 42.40625 106.898438 42.828125 105.695312 43.253906 C 105.023438 43.492188 104.363281 43.738281 103.707031 43.992188 L 102.363281 44.488281 C 102.046875 44.621094 101.863281 44.664062 101.808594 44.609375 C 101.757812 44.558594 101.773438 44.367188 101.863281 44.035156 C 101.886719 43.929688 101.917969 43.816406 101.945312 43.703125 L 101.996094 43.523438 C 102.265625 42.457031 102.539062 41.390625 102.816406 40.324219 C 103.746094 36.699219 104.679688 33.066406 105.613281 29.429688 C 105.625 29.390625 105.636719 29.355469 105.644531 29.324219 C 105.703125 29.089844 105.753906 28.855469 105.804688 28.625 C 105.84375 28.359375 105.742188 28.242188 105.496094 28.273438 C 105.035156 28.308594 104.726562 28.585938 104.574219 29.109375 C 104.292969 30.132812 104.015625 31.15625 103.75 32.183594 C 103.160156 34.480469 102.570312 36.777344 101.972656 39.078125 C 101.539062 40.765625 101.097656 42.453125 100.648438 44.140625 C 100.570312 44.445312 100.484375 44.75 100.386719 45.058594 C 100.335938 45.21875 100.234375 45.332031 100.082031 45.394531 C 99.75 45.53125 99.425781 45.667969 99.101562 45.800781 C 97.4375 46.453125 95.773438 47.148438 94.105469 47.882812 L 94.105469 48.671875 C 95.855469 47.902344 97.605469 47.171875 99.359375 46.480469 C 99.730469 46.316406 99.945312 46.257812 100.003906 46.308594 C 100.066406 46.355469 100.035156 46.585938 99.917969 46.988281 C 99.902344 47.117188 99.875 47.242188 99.839844 47.367188 C 99.804688 47.441406 99.785156 47.515625 99.785156 47.597656 L 99.28125 49.535156 C 98.777344 51.535156 98.265625 53.539062 97.746094 55.546875 C 97.644531 55.949219 97.566406 56.355469 97.503906 56.765625 C 97.453125 57.066406 97.59375 57.167969 97.929688 57.070312 C 98.242188 57.007812 98.460938 56.816406 98.589844 56.492188 C 98.714844 56.164062 98.8125 55.828125 98.886719 55.484375 C 99.171875 54.414062 99.449219 53.347656 99.722656 52.292969 C 99.976562 51.308594 100.230469 50.320312 100.488281 49.332031 C 100.652344 48.6875 100.824219 48.035156 101.003906 47.378906 C 101.117188 46.945312 101.234375 46.511719 101.355469 46.070312 C 101.414062 45.777344 101.582031 45.585938 101.863281 45.488281 C 101.960938 45.449219 102.070312 45.402344 102.1875 45.355469 C 102.300781 45.308594 102.421875 45.253906 102.550781 45.199219 C 102.921875 45.0625 103.296875 44.917969 103.671875 44.773438 C 104.667969 44.386719 105.660156 44.015625 106.65625 43.660156 C 107.773438 43.265625 108.878906 42.886719 109.976562 42.527344 C 110.234375 42.441406 110.492188 42.355469 110.75 42.265625 C 111.078125 42.140625 111.191406 42.261719 111.085938 42.632812 C 110.984375 43.074219 110.875 43.515625 110.757812 43.964844 C 110.726562 44.09375 110.695312 44.226562 110.660156 44.363281 C 110.414062 45.316406 110.167969 46.277344 109.917969 47.234375 C 109.132812 50.265625 108.355469 53.292969 107.578125 56.316406 C 107.46875 56.746094 107.378906 57.179688 107.316406 57.617188 C 107.300781 57.875 107.460938 57.957031 107.800781 57.859375 C 108.101562 57.796875 108.292969 57.617188 108.375 57.320312 C 108.570312 56.769531 108.738281 56.222656 108.878906 55.679688 C 109.664062 52.628906 110.449219 49.578125 111.238281 46.527344 C 111.527344 45.390625 111.820312 44.253906 112.117188 43.117188 C 112.128906 43.058594 112.148438 42.996094 112.171875 42.914062 C 112.230469 42.671875 112.296875 42.429688 112.363281 42.191406 C 112.4375 41.890625 112.613281 41.707031 112.886719 41.636719 L 113.289062 41.507812 C 113.855469 41.3125 114.429688 41.136719 115.003906 40.980469 C 115.582031 40.816406 116.15625 40.644531 116.722656 40.457031 C 117.546875 40.171875 118.386719 39.933594 119.242188 39.753906 C 119.328125 39.730469 119.40625 39.699219 119.480469 39.652344 C 119.570312 39.589844 119.640625 39.511719 119.6875 39.410156 C 119.71875 39.335938 119.707031 39.265625 119.65625 39.203125 Z M 119.65625 39.203125 "/><path style=" stroke:none;fill-rule:nonzero;fill:#ffffff;fill-opacity:1;" d="M 57.8125 25.9375 C 56.066406 24.261719 55.195312 21.945312 55.203125 18.996094 C 55.203125 15.851562 56.226562 13.390625 58.128906 12.085938 C 59.742188 10.980469 61.488281 10.074219 63.242188 9.667969 C 68.136719 8.53125 73.023438 8.761719 77.808594 10.875 C 79.453125 11.601562 81.058594 12.539062 82.078125 14.808594 C 80.726562 17.085938 79.921875 13.5625 78.507812 14.335938 C 80.738281 24.125 82.96875 33.898438 85.191406 43.65625 L 85.5625 43.675781 C 85.742188 43.179688 85.972656 42.710938 86.109375 42.1875 C 88.535156 32.679688 90.949219 23.164062 93.355469 13.644531 C 93.515625 13.003906 93.496094 12.265625 93.5625 11.570312 C 93.046875 11.570312 92.515625 11.433594 92.023438 11.59375 C 91.234375 11.851562 90.582031 11.917969 90.304688 10.523438 C 92.550781 6.910156 104.363281 9.988281 106.675781 14.855469 C 106.132812 15.703125 105.589844 15.957031 104.9375 15.042969 C 104.746094 14.777344 104.488281 14.617188 104.265625 14.402344 C 103.433594 13.589844 102.988281 13.984375 102.660156 15.316406 C 101.335938 20.699219 99.964844 26.054688 98.613281 31.421875 C 95.804688 42.582031 93.003906 53.746094 90.210938 64.910156 C 89.933594 66.023438 89.542969 66.492188 88.707031 66.488281 C 83.609375 66.453125 78.511719 66.507812 73.410156 66.484375 C 71.316406 66.472656 69.644531 64.914062 69.148438 62.519531 C 69.039062 61.996094 69.113281 61 69.34375 60.792969 C 69.871094 60.320312 70.273438 60.746094 70.566406 61.644531 C 71.21875 63.648438 73.109375 64.808594 74.574219 64.136719 C 74.832031 64.011719 75.113281 63.296875 75.113281 62.847656 C 75.121094 62.207031 74.886719 61.558594 74.746094 60.917969 C 71.214844 45.328125 67.679688 29.738281 64.140625 14.148438 C 63.621094 11.847656 63.535156 11.726562 61.925781 12.367188 C 60.863281 12.796875 59.78125 13.28125 58.808594 14.027344 C 56.398438 15.882812 55.921875 20.253906 57.820312 23.132812 C 58.472656 24.121094 58.5625 24.835938 57.8125 25.9375 Z M 89.492188 60.675781 C 89.683594 60.097656 89.886719 59.589844 90.023438 59.046875 C 91.886719 51.753906 93.738281 44.457031 95.589844 37.15625 C 97.488281 29.644531 99.386719 22.132812 101.273438 14.613281 C 101.675781 13.015625 101.464844 12.566406 100.402344 12.3125 C 99.640625 12.128906 99.277344 12.644531 99.035156 13.621094 C 98.214844 16.9375 97.363281 20.238281 96.527344 23.550781 C 93.84375 34.226562 91.164062 44.902344 88.484375 55.574219 C 88.09375 57.136719 88.507812 59.375 89.492188 60.675781 Z M 87.304688 52.519531 C 87.664062 51.679688 87.910156 51.277344 88.027344 50.804688 C 91.175781 38.417969 94.316406 26.023438 97.441406 13.621094 C 97.871094 11.921875 97.472656 11.125 96.25 11.414062 C 95.84375 11.511719 95.339844 12.238281 95.1875 12.84375 C 92.289062 24.238281 89.445312 35.65625 86.566406 47.0625 C 86.074219 49.007812 86.773438 50.445312 87.304688 52.519531 Z M 87.304688 52.519531 "/><g clip-rule="nonzero" clip-path="url(#ceeaae259f)"><g clip-rule="nonzero" clip-path="url(#bbf3c43c65)"><g mask="url(#fc81f3a6c9)" transform="matrix(1,0,0,1,55,8)"><g clip-path="url(#951e76ba4e)"><g clip-rule="nonzero" clip-path="url(#07a1a05fb6)"><g clip-rule="nonzero" clip-path="url(#845dd4374e)"><rect x="0" width="52" height="59" y="0" style="fill:#ffffff;fill-opacity:1;stroke:none;"/><path style="fill:none;stroke-width:30;stroke-linecap:butt;stroke-linejoin:miter;stroke:#231f20;stroke-opacity:1;stroke-miterlimit:10;" d="M 15.005297 15.013631 L 1078.470839 15.013631 L 1078.470839 1181.136481 L 15.005297 1181.136481 Z M 15.005297 15.013631 " transform="matrix(0.0608822,0,0,0.0608822,-5.655743,-8)"/></g></g></g><mask id="fc81f3a6c9"><g filter="url(#4b2c8ad9aa)"><rect x="0" width="219.75" y="0" height="82.499998" style="fill:#000000;fill-opacity:0.3;stroke:none;"/></g></mask></g></g></g><path style=" stroke:none;fill-rule:nonzero;fill:#ffffff;fill-opacity:1;" d="M 118.160156 51.523438 C 118.257812 51.417969 118.273438 51.511719 118.203125 51.808594 C 118.132812 52.105469 117.773438 52.585938 117.125 53.246094 C 116.476562 53.910156 115.878906 54.292969 115.339844 54.398438 C 115.230469 54.414062 115.125 54.449219 115.03125 54.503906 C 114.917969 54.578125 114.828125 54.667969 114.753906 54.78125 C 114.667969 54.898438 114.574219 55.011719 114.476562 55.117188 L 114.453125 55.140625 C 114.0625 55.574219 113.601562 55.925781 113.078125 56.191406 C 112.597656 56.421875 112.175781 56.492188 111.820312 56.394531 C 111.464844 56.300781 111.269531 55.996094 111.234375 55.488281 C 111.230469 55.023438 111.34375 54.53125 111.585938 54.011719 C 111.796875 53.542969 112.050781 53.097656 112.347656 52.675781 C 112.722656 52.105469 113.136719 51.664062 113.59375 51.355469 C 114.039062 51.050781 114.519531 50.820312 115.039062 50.667969 C 115.792969 50.445312 116.164062 50.707031 116.152344 51.453125 C 116.148438 51.925781 116.058594 52.378906 115.886719 52.820312 C 115.84375 52.929688 115.796875 53.042969 115.738281 53.164062 L 115.625 53.40625 C 115.542969 53.664062 115.617188 53.753906 115.847656 53.675781 C 116.503906 53.402344 117.273438 52.6875 118.160156 51.523438 Z M 112.980469 55.578125 C 113.429688 55.277344 113.78125 54.886719 114.035156 54.40625 C 113.507812 54.128906 113.242188 53.609375 113.234375 52.84375 C 112.929688 53.285156 112.691406 53.761719 112.523438 54.273438 C 112.351562 54.792969 112.292969 55.203125 112.34375 55.503906 C 112.394531 55.800781 112.605469 55.828125 112.980469 55.578125 Z M 114.558594 53.429688 C 114.707031 53.234375 114.820312 53.019531 114.894531 52.785156 C 114.972656 52.558594 115.023438 52.324219 115.046875 52.085938 C 115.070312 51.914062 115.058594 51.742188 115.019531 51.574219 C 114.980469 51.460938 114.914062 51.4375 114.816406 51.511719 C 114.628906 51.695312 114.496094 51.917969 114.417969 52.171875 C 114.335938 52.417969 114.304688 52.667969 114.324219 52.925781 C 114.347656 53.164062 114.425781 53.332031 114.558594 53.429688 Z M 114.558594 53.429688 "/><g clip-rule="nonzero" clip-path="url(#f6ff8b883a)"><g clip-rule="nonzero" clip-path="url(#8aca636285)"><g mask="url(#eaa2ef66f0)" transform="matrix(1,0,0,1,111,50)"><g clip-path="url(#17651babaa)"><g clip-rule="nonzero" clip-path="url(#cdfdd2f046)"><g clip-rule="nonzero" clip-path="url(#81b335c362)"><rect x="0" width="8" height="7" y="0" style="fill:#ffffff;fill-opacity:1;stroke:none;"/><path style="fill:none;stroke-width:30;stroke-linecap:butt;stroke-linejoin:miter;stroke:#231f20;stroke-opacity:1;stroke-miterlimit:10;" d="M 647.31016 137.175827 L 1710.775702 137.175827 L 1710.775702 1303.234515 L 647.31016 1303.234515 Z M 647.31016 137.175827 " transform="matrix(0.0608822,0,0,0.0608822,-61.655743,-50)"/></g></g></g><mask id="eaa2ef66f0"><g filter="url(#4b2c8ad9aa)"><rect x="0" width="219.75" y="0" height="82.499998" style="fill:#000000;fill-opacity:0.3;stroke:none;"/></g></mask></g></g></g><path style=" stroke:none;fill-rule:nonzero;fill:#ffffff;fill-opacity:1;" d="M 124.355469 52.515625 C 124.734375 52.136719 124.882812 52.027344 124.800781 52.191406 C 124.71875 52.355469 124.484375 52.671875 124.09375 53.144531 C 123.703125 53.621094 123.234375 54.144531 122.6875 54.71875 C 122.164062 55.273438 121.605469 55.789062 121.015625 56.273438 C 120.449219 56.738281 119.949219 57.035156 119.519531 57.167969 C 118.996094 57.296875 118.617188 57.234375 118.386719 56.980469 C 118.152344 56.726562 118.039062 56.34375 118.042969 55.828125 C 118.050781 55.316406 118.144531 54.734375 118.332031 54.09375 C 118.542969 53.375 118.753906 52.65625 118.960938 51.9375 C 119.0625 51.574219 119.160156 51.222656 119.257812 50.878906 C 119.4375 50.296875 119.601562 49.71875 119.761719 49.144531 C 119.816406 48.960938 119.832031 48.816406 119.800781 48.710938 C 119.765625 48.605469 119.667969 48.566406 119.503906 48.597656 C 119.316406 48.632812 119.082031 48.683594 118.792969 48.753906 L 118.152344 48.914062 C 117.910156 48.945312 117.761719 48.917969 117.707031 48.824219 C 117.652344 48.734375 117.746094 48.601562 117.992188 48.433594 C 118.171875 48.324219 118.367188 48.242188 118.570312 48.191406 C 118.785156 48.132812 118.992188 48.082031 119.195312 48.042969 C 119.324219 48.023438 119.433594 48 119.53125 47.976562 C 119.851562 47.898438 120.058594 47.796875 120.160156 47.671875 C 120.257812 47.546875 120.355469 47.324219 120.453125 47 C 120.558594 46.660156 120.660156 46.320312 120.757812 45.972656 C 120.816406 45.792969 120.878906 45.609375 120.941406 45.425781 C 121.015625 45.144531 121.140625 44.886719 121.320312 44.65625 C 121.511719 44.421875 121.710938 44.296875 121.917969 44.292969 C 122.089844 44.296875 122.160156 44.398438 122.128906 44.597656 C 122.0625 44.929688 121.984375 45.265625 121.898438 45.605469 C 121.855469 45.796875 121.808594 45.988281 121.746094 46.179688 C 121.683594 46.375 121.644531 46.59375 121.601562 46.808594 C 121.515625 47.113281 121.5 47.296875 121.554688 47.359375 C 121.609375 47.417969 121.785156 47.410156 122.082031 47.335938 L 123.527344 46.980469 C 123.742188 46.925781 124.390625 46.753906 125.46875 46.457031 C 126.546875 46.160156 127.097656 46.109375 127.125 46.308594 C 127.15625 46.503906 126.445312 46.796875 124.996094 47.1875 C 124.113281 47.453125 123.4375 47.644531 122.960938 47.761719 C 122.644531 47.832031 122.359375 47.894531 122.109375 47.957031 C 121.679688 48.0625 121.394531 48.207031 121.253906 48.394531 C 121.113281 48.578125 120.984375 48.910156 120.867188 49.386719 C 120.753906 49.800781 120.605469 50.304688 120.429688 50.894531 C 120.050781 52.113281 119.699219 53.34375 119.378906 54.585938 C 119.183594 55.441406 119.179688 55.960938 119.375 56.152344 C 119.570312 56.34375 119.894531 56.304688 120.347656 56.042969 C 120.808594 55.78125 121.332031 55.386719 121.921875 54.859375 C 122.511719 54.332031 123.101562 53.773438 123.699219 53.1875 C 123.847656 53.011719 124.007812 52.84375 124.175781 52.6875 C 124.246094 52.621094 124.304688 52.566406 124.355469 52.515625 Z M 124.355469 52.515625 "/><g clip-rule="nonzero" clip-path="url(#f67c127e4d)"><g clip-rule="nonzero" clip-path="url(#7326ab764c)"><g mask="url(#9012b7d0ef)" transform="matrix(1,0,0,1,117,44)"><g clip-path="url(#d4ae8b7797)"><g clip-rule="nonzero" clip-path="url(#c7dd3efdfa)"><g clip-rule="nonzero" clip-path="url(#231f636f41)"><rect x="0" width="11" height="14" y="0" style="fill:#ffffff;fill-opacity:1;stroke:none;"/><path style="fill:none;stroke-width:30;stroke-linecap:butt;stroke-linejoin:miter;stroke:#231f20;stroke-opacity:1;stroke-miterlimit:10;" d="M 647.31016 137.175827 L 1710.775702 137.175827 L 1710.775702 1303.234515 L 647.31016 1303.234515 Z M 647.31016 137.175827 " transform="matrix(0.0608822,0,0,0.0608822,-67.655743,-44)"/></g></g></g><mask id="9012b7d0ef"><g filter="url(#4b2c8ad9aa)"><rect x="0" width="219.75" y="0" height="82.499998" style="fill:#000000;fill-opacity:0.3;stroke:none;"/></g></mask></g></g></g><path style=" stroke:none;fill-rule:nonzero;fill:#ffffff;fill-opacity:1;" d="M 132.355469 51.949219 C 132.484375 51.855469 132.613281 51.765625 132.753906 51.6875 C 132.875 51.621094 132.949219 51.605469 132.972656 51.644531 C 132.996094 51.679688 132.921875 51.796875 132.746094 51.992188 C 132.1875 52.613281 131.585938 53.191406 130.941406 53.71875 C 130.300781 54.25 129.628906 54.742188 128.933594 55.195312 C 128.414062 55.535156 127.875 55.835938 127.316406 56.097656 C 126.765625 56.359375 126.246094 56.515625 125.761719 56.5625 C 125.277344 56.613281 124.878906 56.488281 124.5625 56.183594 C 124.089844 55.714844 124.027344 55.015625 124.371094 54.085938 C 124.65625 53.328125 125.074219 52.652344 125.621094 52.0625 C 126.164062 51.46875 126.792969 50.992188 127.515625 50.640625 C 128.039062 50.390625 128.589844 50.242188 129.167969 50.191406 C 129.382812 50.164062 129.582031 50.199219 129.777344 50.292969 C 129.925781 50.402344 129.980469 50.558594 129.945312 50.761719 C 129.910156 50.96875 129.785156 51.183594 129.574219 51.417969 C 129.136719 51.832031 128.683594 52.128906 128.214844 52.304688 C 127.699219 52.515625 127.175781 52.699219 126.640625 52.855469 C 126.390625 52.917969 126.203125 53.015625 126.070312 53.152344 C 125.941406 53.285156 125.835938 53.488281 125.753906 53.761719 C 125.484375 54.503906 125.546875 55.042969 125.945312 55.371094 C 126.191406 55.566406 126.550781 55.585938 127.019531 55.433594 C 127.484375 55.28125 128.003906 55.03125 128.574219 54.679688 C 129.144531 54.328125 129.714844 53.945312 130.285156 53.523438 C 130.855469 53.101562 131.371094 52.710938 131.835938 52.347656 C 132.03125 52.191406 132.207031 52.058594 132.355469 51.949219 Z M 127.121094 51.792969 C 127.117188 51.808594 127.105469 51.816406 127.09375 51.816406 C 127.066406 51.847656 127.03125 51.878906 126.984375 51.921875 C 126.9375 51.964844 126.898438 52.003906 126.863281 52.042969 C 126.835938 52.066406 126.816406 52.089844 126.800781 52.117188 C 126.800781 52.15625 126.894531 52.144531 127.085938 52.078125 C 127.273438 52.011719 127.484375 51.925781 127.71875 51.824219 C 127.933594 51.730469 128.136719 51.617188 128.328125 51.484375 C 128.5 51.363281 128.570312 51.253906 128.539062 51.152344 C 128.519531 51.125 128.492188 51.101562 128.460938 51.085938 C 128.421875 51.070312 128.382812 51.0625 128.34375 51.0625 C 128.117188 51.121094 127.910156 51.214844 127.714844 51.34375 C 127.507812 51.480469 127.308594 51.632812 127.117188 51.792969 Z M 127.121094 51.792969 "/><g clip-rule="nonzero" clip-path="url(#8823ab9f66)"><g clip-rule="nonzero" clip-path="url(#6d99dc33fd)"><g mask="url(#2a7049e05b)" transform="matrix(1,0,0,1,124,50)"><g clip-path="url(#5d5b7f7f1b)"><g clip-rule="nonzero" clip-path="url(#e722da9c9a)"><g clip-rule="nonzero" clip-path="url(#9aec809d48)"><rect x="0" width="9" height="7" y="0" style="fill:#ffffff;fill-opacity:1;stroke:none;"/><path style="fill:none;stroke-width:30;stroke-linecap:butt;stroke-linejoin:miter;stroke:#231f20;stroke-opacity:1;stroke-miterlimit:10;" d="M 647.31016 137.175827 L 1710.775702 137.175827 L 1710.775702 1303.234515 L 647.31016 1303.234515 Z M 647.31016 137.175827 " transform="matrix(0.0608822,0,0,0.0608822,-74.655743,-50)"/></g></g></g><mask id="2a7049e05b"><g filter="url(#4b2c8ad9aa)"><rect x="0" width="219.75" y="0" height="82.499998" style="fill:#000000;fill-opacity:0.3;stroke:none;"/></g></mask></g></g></g><path style=" stroke:none;fill-rule:nonzero;fill:#ffffff;fill-opacity:1;" d="M 138.917969 52.917969 C 139.070312 52.65625 139.203125 52.515625 139.308594 52.488281 C 139.417969 52.460938 139.421875 52.570312 139.320312 52.816406 C 138.992188 53.453125 138.632812 54.070312 138.246094 54.675781 C 137.84375 55.292969 137.378906 55.863281 136.851562 56.378906 C 136.472656 56.785156 136.027344 57.105469 135.523438 57.335938 C 134.886719 57.578125 134.40625 57.625 134.070312 57.472656 C 133.738281 57.320312 133.515625 57.042969 133.402344 56.632812 C 133.285156 56.171875 133.242188 55.707031 133.277344 55.230469 C 133.304688 54.707031 133.371094 54.1875 133.472656 53.675781 C 133.640625 52.710938 133.914062 51.433594 134.285156 49.839844 C 134.65625 48.246094 135.109375 46.546875 135.640625 44.734375 C 136.148438 43.003906 136.738281 41.304688 137.417969 39.636719 C 138.066406 38.042969 138.75 36.765625 139.464844 35.800781 C 139.859375 35.316406 140.246094 35.027344 140.628906 34.925781 C 141.011719 34.828125 141.300781 34.929688 141.496094 35.242188 C 141.625 35.5 141.695312 35.777344 141.710938 36.066406 C 141.726562 36.386719 141.707031 36.707031 141.652344 37.023438 C 141.460938 38.171875 141.128906 39.417969 140.65625 40.757812 C 140.183594 42.097656 139.609375 43.546875 138.933594 45.101562 C 138.324219 46.53125 137.636719 47.921875 136.875 49.277344 C 136.179688 50.507812 135.609375 51.488281 135.171875 52.214844 C 134.960938 52.515625 134.804688 52.933594 134.703125 53.460938 C 134.597656 54.042969 134.542969 54.628906 134.539062 55.21875 C 134.535156 55.816406 134.628906 56.265625 134.816406 56.566406 C 135.007812 56.804688 135.289062 56.828125 135.65625 56.628906 C 136.023438 56.425781 136.417969 56.101562 136.847656 55.652344 C 137.273438 55.199219 137.671875 54.722656 138.039062 54.222656 C 138.40625 53.722656 138.699219 53.289062 138.917969 52.917969 Z M 136.890625 45.09375 C 136.757812 45.484375 136.574219 46.070312 136.347656 46.851562 C 136.117188 47.632812 135.886719 48.425781 135.65625 49.230469 C 135.402344 50.128906 135.195312 50.832031 135.039062 51.335938 C 135.46875 50.632812 136.015625 49.628906 136.683594 48.328125 C 137.351562 47.023438 138.039062 45.511719 138.753906 43.789062 C 139.496094 41.988281 140.148438 40.152344 140.703125 38.285156 C 140.945312 37.175781 141.015625 36.445312 140.914062 36.09375 C 140.8125 35.746094 140.597656 35.765625 140.277344 36.15625 C 139.953125 36.542969 139.585938 37.285156 139.175781 38.378906 C 138.503906 40.1875 137.882812 41.988281 137.316406 43.777344 C 137.164062 44.21875 137.023438 44.65625 136.890625 45.09375 Z M 136.890625 45.09375 "/><g clip-rule="nonzero" clip-path="url(#7428c519e3)"><g clip-rule="nonzero" clip-path="url(#86f0cc4bae)"><g mask="url(#0b6eb02656)" transform="matrix(1,0,0,1,133,34)"><g clip-path="url(#e4c6e59673)"><g clip-rule="nonzero" clip-path="url(#94d9ca2d1c)"><g clip-rule="nonzero" clip-path="url(#02717729a4)"><rect x="0" width="9" height="24" y="0" style="fill:#ffffff;fill-opacity:1;stroke:none;"/><path style="fill:none;stroke-width:30;stroke-linecap:butt;stroke-linejoin:miter;stroke:#231f20;stroke-opacity:1;stroke-miterlimit:10;" d="M 647.31016 137.175827 L 1710.775702 137.175827 L 1710.775702 1303.234515 L 647.31016 1303.234515 Z M 647.31016 137.175827 " transform="matrix(0.0608822,0,0,0.0608822,-83.655743,-34)"/></g></g></g><mask id="0b6eb02656"><g filter="url(#4b2c8ad9aa)"><rect x="0" width="219.75" y="0" height="82.499998" style="fill:#000000;fill-opacity:0.3;stroke:none;"/></g></mask></g></g></g></g></svg>